<svg width="222" height="225" viewBox="0 0 222 225" fill="none" xmlns="http://www.w3.org/2000/svg">
<g clip-path="url(#clip0_13_348)">
<path fill-rule="evenodd" clip-rule="evenodd" d="M-34.5247 193.169C3.41433 282.606 167.242 343.186 210.436 270.689C253.63 198.192 144.337 185.036 105.701 110.12C67.0663 35.204 37.0446 -11.554 -18.7802 5.51338C-74.605 22.5807 -72.4638 103.732 -34.5247 193.169Z" fill="#6259FF"/>
<circle cx="14.5" cy="210.5" r="19.5" fill="#6259FF"/>
<path d="M-2.2501 216.875C-2.2501 217.715 -2.26447 218.515 -2.11816 219.319C-1.98062 220.076 -1.7138 220.594 -1.4376 221.312C-1.20536 221.916 -1.19758 222.811 -0.777879 223.278C-0.630242 223.442 -0.565643 223.853 -0.375101 223.972C-0.155535 224.109 0.086625 224.395 0.222121 224.625C0.430485 224.979 1.09368 225.413 1.4374 225.681C1.65926 225.853 1.91258 225.793 2.0624 226.062C2.21738 226.341 2.57214 226.215 2.7499 226.438C3.08446 226.856 3.64932 226.803 4.1249 227.028C4.64872 227.276 5.41849 227.25 5.9999 227.25" stroke="white" stroke-width="3" stroke-linecap="round"/>
</g>
<defs>
<clipPath id="clip0_13_348">
<rect width="222" height="225" fill="white"/>
</clipPath>
</defs>
</svg>
